{"title":"Gunday.2014.BRRip.480p.x264.Hindi.ESubs-ViZNU [P2PDL]","uid":10130375,"size":586101224,"categoryP":"video","categoryS":"movies","magnet":"?xt=urn:btih:4a387725f2650ac037c003c23b381b17f632b330&amp;dn=Gunday.2014.BRRip.480p.x264.Hindi.ESubs-ViZNU+%5BP2PDL%5D&amp;tr=udp%3A%2F%2Ftracker.openbittorrent.com%3A80&amp;tr=udp%3A%2F%2Fopen.demonii.com%3A1337&amp;tr=udp%3A%2F%2Ftracker.coppersurfer.tk%3A6969&amp;tr=udp%3A%2F%2Fexodus.desync.com%3A6969","seeders":1,"leechers":1,"uploader":"ValidusVyto","files":-1,"time":1399831321,"description":"Gunday.2014.BRRip.480p.x264.Hindi.ESubs-ViZNU\n\n\nGenre: Action | Crime | Drama  &lt;a href=&quot;\nhttp://www.imdb.com/title/tt2574698/&quot; rel=&quot;nofollow&quot; target=&quot;_NEW&quot;&gt;\nhttp://www.imdb.com/title/tt2574698/&lt;/a&gt;\n\n\nGeneral\nFormat                         : MPEG-4\nFile size                      : 553 MiB\nDuration                       : 2h 32mn\nOverall bit rate               : 506 Kbps\n\nVideo\nFormat                         : AVC\nBit rate                       : 463 Kbps\nWidth                          : 720 pixels\nHeight                         : 304 pixels\nDisplay aspect ratio           : 2.35:1\nFrame rate mode                : Constant\nFrame rate                     : 24.000 fps\nBit depth                      : 8 bits\nStream size                    : 505 MiB (91%)\n\nAudio\nFormat                         : AAC\nBit rate mode                  : Variable\nBit rate                       : 40.0 Kbps\nChannel(s)                     : 2 channels\nChannel positions              : Front: L R\nSampling rate                  : 48.0 KHz\nStream size                    : 43.6 MiB (8%)\nLanguage                       : Hindi\n\nSubtitle                       : Yes (English)\n &lt;a href=&quot;\nhttp://snapgr.am/images/2014/05/11/frame6.png&quot; rel=&quot;nofollow&quot; target=&quot;_NEW&quot;&gt;\nhttp://snapgr.am/images/2014/05/11/frame6.png&lt;/a&gt; &lt;a href=&quot;\nhttp://snapgr.am/images/2014/05/11/frame10.png&quot; rel=&quot;nofollow&quot; target=&quot;_NEW&quot;&gt;\nhttp://snapgr.am/images/2014/05/11/frame10.png&lt;/a&gt; &lt;a href=&quot;\nhttp://snapgr.am/images/2014/05/11/frame11.png&quot; rel=&quot;nofollow&quot; target=&quot;_NEW&quot;&gt;\nhttp://snapgr.am/images/2014/05/11/frame11.png&lt;/a&gt; &lt;a href=&quot;\nhttp://snapgr.am/images/2014/05/11/frame12.png&quot; rel=&quot;nofollow&quot; target=&quot;_NEW&quot;&gt;\nhttp://snapgr.am/images/2014/05/11/frame12.png&lt;/a&gt; &lt;a href=&quot;\nhttp://snapgr.am/images/2014/05/11/frame14.png&quot; rel=&quot;nofollow&quot; target=&quot;_NEW&quot;&gt;\nhttp://snapgr.am/images/2014/05/11/frame14.png&lt;/a&gt; &lt;a href=&quot;\nhttp://snapgr.am/images/2014/05/11/frame15.png&quot; rel=&quot;nofollow&quot; target=&quot;_NEW&quot;&gt;\nhttp://snapgr.am/images/2014/05/11/frame15.png&lt;/a&gt; &lt;a href=&quot;\nhttp://snapgr.am/images/2014/05/11/frame18.png&quot; rel=&quot;nofollow&quot; target=&quot;_NEW&quot;&gt;\nhttp://snapgr.am/images/2014/05/11/frame18.png&lt;/a&gt; &lt;a href=&quot;\nhttp://snapgr.am/images/2014/05/11/frame19.png&quot; rel=&quot;nofollow&quot; target=&quot;_NEW&quot;&gt;\nhttp://snapgr.am/images/2014/05/11/frame19.png&lt;/a&gt;\n\n----------------------------------------------------------------------------------------------------\n\n\nRecommend to you to use latest version of VLC player. Install K-Lite Codec Pack or shark007 codecs\nin case of any kind of problem in playback (For non-VLC Media Player users). Alternatively, install\nCore AVC codecs, the fastest decoder that there is coupled with Community Center Codec Pack and play\non Windows Media Player Classic. Check sample to be sure.\n\nEncoder Notes:Looking For Early Access To Anything You Can Provide DVDScr, R5, DVDR, BluRay, Direct\nAudio, Music Releases and Seedboxes. We require dedicated servers, so as to do more \nand fast releases of movies.\n\nEncode by ViZNU @ P2PDL Torrent Sharing Community!\t\t","torrent":{"xt":"urn:btih:4a387725f2650ac037c003c23b381b17f632b330","amp;dn":"Gunday.2014.BRRip.480p.x264.Hindi.ESubs-ViZNU+%5BP2PDL%5D","amp;tr":["udp%3A%2F%2Ftracker.openbittorrent.com%3A80","udp%3A%2F%2Fopen.demonii.com%3A1337","udp%3A%2F%2Ftracker.coppersurfer.tk%3A6969","udp%3A%2F%2Fexodus.desync.com%3A6969"],"infoHash":"4a387725f2650ac037c003c23b381b17f632b330","infoHashBuffer":{"type":"Buffer","data":[74,56,119,37,242,101,10,192,55,192,3,194,59,56,27,23,246,50,179,48]},"announce":[],"urlList":[]}}